<mxfile host="www.draw.io" modified="2020-03-06T12:41:33.676Z" agent="Mozilla/5.0 (Macintosh; Intel Mac OS X 10_13_6) AppleWebKit/605.1.15 (KHTML, like Gecko) Version/13.0.5 Safari/605.1.15" etag="gGCjaeWNIf8Tstpw__Q9" version="12.8.1" type="github">
  <diagram id="abQR_bzKZMMKFjySrHWE" name="Page-1">
    <mxGraphModel dx="615" dy="474" grid="1" gridSize="10" guides="1" tooltips="1" connect="1" arrows="1" fold="1" page="1" pageScale="1" pageWidth="827" pageHeight="1169" math="0" shadow="0">
      <root>
        <mxCell id="0" />
        <mxCell id="1" parent="0" />
        <mxCell id="07VAeV7Kq3pEdNZy9phS-1" value="" style="ellipse;whiteSpace=wrap;html=1;aspect=fixed;fillColor=#dae8fc;strokeColor=#6c8ebf;" parent="1" vertex="1">
          <mxGeometry x="160" y="200" width="20" height="20" as="geometry" />
        </mxCell>
        <mxCell id="07VAeV7Kq3pEdNZy9phS-2" value="" style="ellipse;whiteSpace=wrap;html=1;aspect=fixed;fillColor=#dae8fc;strokeColor=#6c8ebf;" parent="1" vertex="1">
          <mxGeometry x="160" y="250" width="20" height="20" as="geometry" />
        </mxCell>
        <mxCell id="07VAeV7Kq3pEdNZy9phS-3" value="" style="ellipse;whiteSpace=wrap;html=1;aspect=fixed;fillColor=#ffe6cc;strokeColor=#d79b00;" parent="1" vertex="1">
          <mxGeometry x="260" y="160" width="20" height="20" as="geometry" />
        </mxCell>
        <mxCell id="07VAeV7Kq3pEdNZy9phS-4" value="" style="ellipse;whiteSpace=wrap;html=1;aspect=fixed;fillColor=#ffe6cc;strokeColor=#d79b00;" parent="1" vertex="1">
          <mxGeometry x="260" y="200" width="20" height="20" as="geometry" />
        </mxCell>
        <mxCell id="07VAeV7Kq3pEdNZy9phS-5" value="" style="ellipse;whiteSpace=wrap;html=1;aspect=fixed;fillColor=#ffe6cc;strokeColor=#d79b00;" parent="1" vertex="1">
          <mxGeometry x="260" y="240" width="20" height="20" as="geometry" />
        </mxCell>
        <mxCell id="07VAeV7Kq3pEdNZy9phS-6" value="" style="ellipse;whiteSpace=wrap;html=1;aspect=fixed;fillColor=#ffe6cc;strokeColor=#d79b00;" parent="1" vertex="1">
          <mxGeometry x="260" y="280" width="20" height="20" as="geometry" />
        </mxCell>
        <mxCell id="07VAeV7Kq3pEdNZy9phS-7" value="" style="ellipse;whiteSpace=wrap;html=1;aspect=fixed;fillColor=#ffe6cc;strokeColor=#d79b00;" parent="1" vertex="1">
          <mxGeometry x="404" y="160" width="20" height="20" as="geometry" />
        </mxCell>
        <mxCell id="07VAeV7Kq3pEdNZy9phS-8" value="" style="ellipse;whiteSpace=wrap;html=1;aspect=fixed;fillColor=#ffe6cc;strokeColor=#d79b00;" parent="1" vertex="1">
          <mxGeometry x="404" y="200" width="20" height="20" as="geometry" />
        </mxCell>
        <mxCell id="07VAeV7Kq3pEdNZy9phS-9" value="" style="ellipse;whiteSpace=wrap;html=1;aspect=fixed;fillColor=#ffe6cc;strokeColor=#d79b00;" parent="1" vertex="1">
          <mxGeometry x="404" y="240" width="20" height="20" as="geometry" />
        </mxCell>
        <mxCell id="07VAeV7Kq3pEdNZy9phS-10" value="" style="ellipse;whiteSpace=wrap;html=1;aspect=fixed;fillColor=#ffe6cc;strokeColor=#d79b00;" parent="1" vertex="1">
          <mxGeometry x="404" y="280" width="20" height="20" as="geometry" />
        </mxCell>
        <mxCell id="07VAeV7Kq3pEdNZy9phS-11" value="" style="ellipse;whiteSpace=wrap;html=1;aspect=fixed;fillColor=#d5e8d4;strokeColor=#82b366;" parent="1" vertex="1">
          <mxGeometry x="500" y="200" width="20" height="20" as="geometry" />
        </mxCell>
        <mxCell id="07VAeV7Kq3pEdNZy9phS-12" value="" style="ellipse;whiteSpace=wrap;html=1;aspect=fixed;fillColor=#d5e8d4;strokeColor=#82b366;" parent="1" vertex="1">
          <mxGeometry x="500" y="250" width="20" height="20" as="geometry" />
        </mxCell>
        <mxCell id="07VAeV7Kq3pEdNZy9phS-13" value="" style="endArrow=none;dashed=1;html=1;" parent="1" edge="1">
          <mxGeometry width="50" height="50" relative="1" as="geometry">
            <mxPoint x="220" y="330" as="sourcePoint" />
            <mxPoint x="220" y="130" as="targetPoint" />
          </mxGeometry>
        </mxCell>
        <mxCell id="07VAeV7Kq3pEdNZy9phS-14" value="" style="endArrow=none;dashed=1;html=1;" parent="1" edge="1">
          <mxGeometry width="50" height="50" relative="1" as="geometry">
            <mxPoint x="470" y="330" as="sourcePoint" />
            <mxPoint x="470" y="130" as="targetPoint" />
          </mxGeometry>
        </mxCell>
        <mxCell id="07VAeV7Kq3pEdNZy9phS-18" value="" style="endArrow=classic;html=1;entryX=0;entryY=0.5;entryDx=0;entryDy=0;" parent="1" target="07VAeV7Kq3pEdNZy9phS-3" edge="1">
          <mxGeometry width="50" height="50" relative="1" as="geometry">
            <mxPoint x="180" y="210" as="sourcePoint" />
            <mxPoint x="230" y="155" as="targetPoint" />
          </mxGeometry>
        </mxCell>
        <mxCell id="07VAeV7Kq3pEdNZy9phS-20" value="" style="endArrow=classic;html=1;" parent="1" edge="1">
          <mxGeometry width="50" height="50" relative="1" as="geometry">
            <mxPoint x="120" y="210" as="sourcePoint" />
            <mxPoint x="160" y="210" as="targetPoint" />
          </mxGeometry>
        </mxCell>
        <mxCell id="07VAeV7Kq3pEdNZy9phS-21" value="" style="endArrow=classic;html=1;" parent="1" edge="1">
          <mxGeometry width="50" height="50" relative="1" as="geometry">
            <mxPoint x="120" y="258.57" as="sourcePoint" />
            <mxPoint x="160" y="258.57" as="targetPoint" />
          </mxGeometry>
        </mxCell>
        <mxCell id="07VAeV7Kq3pEdNZy9phS-22" value="" style="endArrow=classic;html=1;" parent="1" edge="1">
          <mxGeometry width="50" height="50" relative="1" as="geometry">
            <mxPoint x="520" y="208.57" as="sourcePoint" />
            <mxPoint x="560" y="208.57" as="targetPoint" />
          </mxGeometry>
        </mxCell>
        <mxCell id="07VAeV7Kq3pEdNZy9phS-23" value="" style="endArrow=classic;html=1;" parent="1" edge="1">
          <mxGeometry width="50" height="50" relative="1" as="geometry">
            <mxPoint x="520" y="260" as="sourcePoint" />
            <mxPoint x="560" y="260" as="targetPoint" />
          </mxGeometry>
        </mxCell>
        <mxCell id="07VAeV7Kq3pEdNZy9phS-24" value="" style="endArrow=classic;html=1;entryX=0;entryY=0.5;entryDx=0;entryDy=0;" parent="1" target="07VAeV7Kq3pEdNZy9phS-4" edge="1">
          <mxGeometry width="50" height="50" relative="1" as="geometry">
            <mxPoint x="180" y="210" as="sourcePoint" />
            <mxPoint x="230" y="160" as="targetPoint" />
          </mxGeometry>
        </mxCell>
        <mxCell id="07VAeV7Kq3pEdNZy9phS-25" value="" style="endArrow=classic;html=1;entryX=0;entryY=0.5;entryDx=0;entryDy=0;" parent="1" target="07VAeV7Kq3pEdNZy9phS-5" edge="1">
          <mxGeometry width="50" height="50" relative="1" as="geometry">
            <mxPoint x="180" y="210" as="sourcePoint" />
            <mxPoint x="230" y="160" as="targetPoint" />
          </mxGeometry>
        </mxCell>
        <mxCell id="07VAeV7Kq3pEdNZy9phS-26" value="" style="endArrow=classic;html=1;entryX=0;entryY=0;entryDx=0;entryDy=0;" parent="1" target="07VAeV7Kq3pEdNZy9phS-6" edge="1">
          <mxGeometry width="50" height="50" relative="1" as="geometry">
            <mxPoint x="180" y="210" as="sourcePoint" />
            <mxPoint x="260" y="260" as="targetPoint" />
          </mxGeometry>
        </mxCell>
        <mxCell id="07VAeV7Kq3pEdNZy9phS-27" value="" style="endArrow=classic;html=1;entryX=0;entryY=1;entryDx=0;entryDy=0;" parent="1" target="07VAeV7Kq3pEdNZy9phS-3" edge="1">
          <mxGeometry width="50" height="50" relative="1" as="geometry">
            <mxPoint x="180" y="260" as="sourcePoint" />
            <mxPoint x="260" y="220" as="targetPoint" />
          </mxGeometry>
        </mxCell>
        <mxCell id="07VAeV7Kq3pEdNZy9phS-28" value="" style="endArrow=classic;html=1;entryX=0;entryY=1;entryDx=0;entryDy=0;" parent="1" target="07VAeV7Kq3pEdNZy9phS-4" edge="1">
          <mxGeometry width="50" height="50" relative="1" as="geometry">
            <mxPoint x="180" y="260" as="sourcePoint" />
            <mxPoint x="260" y="220" as="targetPoint" />
          </mxGeometry>
        </mxCell>
        <mxCell id="07VAeV7Kq3pEdNZy9phS-29" value="" style="endArrow=classic;html=1;entryX=0;entryY=1;entryDx=0;entryDy=0;" parent="1" target="07VAeV7Kq3pEdNZy9phS-5" edge="1">
          <mxGeometry width="50" height="50" relative="1" as="geometry">
            <mxPoint x="180" y="260" as="sourcePoint" />
            <mxPoint x="260" y="220" as="targetPoint" />
          </mxGeometry>
        </mxCell>
        <mxCell id="07VAeV7Kq3pEdNZy9phS-30" value="" style="endArrow=classic;html=1;entryX=0;entryY=0.5;entryDx=0;entryDy=0;" parent="1" target="07VAeV7Kq3pEdNZy9phS-6" edge="1">
          <mxGeometry width="50" height="50" relative="1" as="geometry">
            <mxPoint x="180" y="260" as="sourcePoint" />
            <mxPoint x="260" y="220" as="targetPoint" />
          </mxGeometry>
        </mxCell>
        <mxCell id="07VAeV7Kq3pEdNZy9phS-31" value="" style="endArrow=none;html=1;entryX=0;entryY=0.5;entryDx=0;entryDy=0;endFill=0;" parent="1" target="07VAeV7Kq3pEdNZy9phS-7" edge="1">
          <mxGeometry width="50" height="50" relative="1" as="geometry">
            <mxPoint x="280" y="170" as="sourcePoint" />
            <mxPoint x="330" y="120" as="targetPoint" />
          </mxGeometry>
        </mxCell>
        <mxCell id="07VAeV7Kq3pEdNZy9phS-32" value="" style="endArrow=classic;html=1;entryX=0;entryY=0;entryDx=0;entryDy=0;" parent="1" target="07VAeV7Kq3pEdNZy9phS-11" edge="1">
          <mxGeometry width="50" height="50" relative="1" as="geometry">
            <mxPoint x="424" y="170" as="sourcePoint" />
            <mxPoint x="547.9999999999898" y="170" as="targetPoint" />
          </mxGeometry>
        </mxCell>
        <mxCell id="07VAeV7Kq3pEdNZy9phS-33" value="" style="endArrow=classic;html=1;entryX=0;entryY=0.5;entryDx=0;entryDy=0;exitX=1;exitY=0.5;exitDx=0;exitDy=0;" parent="1" source="07VAeV7Kq3pEdNZy9phS-8" target="07VAeV7Kq3pEdNZy9phS-11" edge="1">
          <mxGeometry width="50" height="50" relative="1" as="geometry">
            <mxPoint x="421.07" y="170" as="sourcePoint" />
            <mxPoint x="499.99893218813446" y="202.92893218813447" as="targetPoint" />
          </mxGeometry>
        </mxCell>
        <mxCell id="07VAeV7Kq3pEdNZy9phS-34" value="" style="endArrow=classic;html=1;entryX=0;entryY=1;entryDx=0;entryDy=0;exitX=1;exitY=0.5;exitDx=0;exitDy=0;" parent="1" target="07VAeV7Kq3pEdNZy9phS-11" edge="1">
          <mxGeometry width="50" height="50" relative="1" as="geometry">
            <mxPoint x="424.00000000001" y="248.57" as="sourcePoint" />
            <mxPoint x="500" y="248.57" as="targetPoint" />
          </mxGeometry>
        </mxCell>
        <mxCell id="07VAeV7Kq3pEdNZy9phS-35" value="" style="endArrow=classic;html=1;entryX=0.5;entryY=1;entryDx=0;entryDy=0;" parent="1" target="07VAeV7Kq3pEdNZy9phS-11" edge="1">
          <mxGeometry width="50" height="50" relative="1" as="geometry">
            <mxPoint x="424" y="290" as="sourcePoint" />
            <mxPoint x="502.92893218813447" y="260.0010678118654" as="targetPoint" />
          </mxGeometry>
        </mxCell>
        <mxCell id="07VAeV7Kq3pEdNZy9phS-37" value="" style="endArrow=classic;html=1;entryX=0;entryY=0;entryDx=0;entryDy=0;" parent="1" target="07VAeV7Kq3pEdNZy9phS-12" edge="1">
          <mxGeometry width="50" height="50" relative="1" as="geometry">
            <mxPoint x="424" y="170" as="sourcePoint" />
            <mxPoint x="502.92893218813447" y="202.92893218813447" as="targetPoint" />
          </mxGeometry>
        </mxCell>
        <mxCell id="07VAeV7Kq3pEdNZy9phS-38" value="" style="endArrow=classic;html=1;entryX=0;entryY=0.5;entryDx=0;entryDy=0;exitX=1;exitY=0.5;exitDx=0;exitDy=0;" parent="1" target="07VAeV7Kq3pEdNZy9phS-12" edge="1">
          <mxGeometry width="50" height="50" relative="1" as="geometry">
            <mxPoint x="424" y="210" as="sourcePoint" />
            <mxPoint x="500" y="210" as="targetPoint" />
          </mxGeometry>
        </mxCell>
        <mxCell id="07VAeV7Kq3pEdNZy9phS-39" value="" style="endArrow=classic;html=1;entryX=0;entryY=1;entryDx=0;entryDy=0;exitX=1;exitY=0.5;exitDx=0;exitDy=0;" parent="1" target="07VAeV7Kq3pEdNZy9phS-12" edge="1">
          <mxGeometry width="50" height="50" relative="1" as="geometry">
            <mxPoint x="424.00000000001" y="249.99999999999994" as="sourcePoint" />
            <mxPoint x="502.92893218813447" y="218.50106781186554" as="targetPoint" />
          </mxGeometry>
        </mxCell>
        <mxCell id="07VAeV7Kq3pEdNZy9phS-40" value="" style="endArrow=classic;html=1;entryX=0.5;entryY=1;entryDx=0;entryDy=0;" parent="1" target="07VAeV7Kq3pEdNZy9phS-12" edge="1">
          <mxGeometry width="50" height="50" relative="1" as="geometry">
            <mxPoint x="424" y="290" as="sourcePoint" />
            <mxPoint x="510" y="220" as="targetPoint" />
          </mxGeometry>
        </mxCell>
        <mxCell id="07VAeV7Kq3pEdNZy9phS-41" value="" style="endArrow=none;html=1;entryX=0;entryY=0;entryDx=0;entryDy=0;endFill=0;" parent="1" target="07VAeV7Kq3pEdNZy9phS-8" edge="1">
          <mxGeometry width="50" height="50" relative="1" as="geometry">
            <mxPoint x="280" y="170" as="sourcePoint" />
            <mxPoint x="404" y="170" as="targetPoint" />
          </mxGeometry>
        </mxCell>
        <mxCell id="07VAeV7Kq3pEdNZy9phS-42" value="" style="endArrow=none;html=1;entryX=0;entryY=0;entryDx=0;entryDy=0;endFill=0;" parent="1" source="07VAeV7Kq3pEdNZy9phS-56" target="07VAeV7Kq3pEdNZy9phS-9" edge="1">
          <mxGeometry width="50" height="50" relative="1" as="geometry">
            <mxPoint x="280" y="170" as="sourcePoint" />
            <mxPoint x="406.92893218813447" y="202.92893218813447" as="targetPoint" />
          </mxGeometry>
        </mxCell>
        <mxCell id="07VAeV7Kq3pEdNZy9phS-43" value="" style="endArrow=none;html=1;entryX=0;entryY=0;entryDx=0;entryDy=0;endFill=0;" parent="1" target="07VAeV7Kq3pEdNZy9phS-10" edge="1">
          <mxGeometry width="50" height="50" relative="1" as="geometry">
            <mxPoint x="280" y="170" as="sourcePoint" />
            <mxPoint x="406.92893218813447" y="202.92893218813447" as="targetPoint" />
          </mxGeometry>
        </mxCell>
        <mxCell id="07VAeV7Kq3pEdNZy9phS-44" value="" style="endArrow=none;html=1;entryX=0;entryY=0.5;entryDx=0;entryDy=0;endFill=0;" parent="1" target="07VAeV7Kq3pEdNZy9phS-7" edge="1">
          <mxGeometry width="50" height="50" relative="1" as="geometry">
            <mxPoint x="280" y="209" as="sourcePoint" />
            <mxPoint x="404" y="209" as="targetPoint" />
          </mxGeometry>
        </mxCell>
        <mxCell id="07VAeV7Kq3pEdNZy9phS-45" value="" style="endArrow=none;html=1;entryX=0;entryY=0.5;entryDx=0;entryDy=0;endFill=0;" parent="1" target="07VAeV7Kq3pEdNZy9phS-8" edge="1">
          <mxGeometry width="50" height="50" relative="1" as="geometry">
            <mxPoint x="280" y="210" as="sourcePoint" />
            <mxPoint x="404" y="171" as="targetPoint" />
          </mxGeometry>
        </mxCell>
        <mxCell id="07VAeV7Kq3pEdNZy9phS-46" value="" style="endArrow=none;html=1;entryX=0;entryY=0.5;entryDx=0;entryDy=0;exitX=1;exitY=0.5;exitDx=0;exitDy=0;endFill=0;" parent="1" source="07VAeV7Kq3pEdNZy9phS-4" target="07VAeV7Kq3pEdNZy9phS-9" edge="1">
          <mxGeometry width="50" height="50" relative="1" as="geometry">
            <mxPoint x="280" y="209" as="sourcePoint" />
            <mxPoint x="404" y="209" as="targetPoint" />
          </mxGeometry>
        </mxCell>
        <mxCell id="07VAeV7Kq3pEdNZy9phS-47" value="" style="endArrow=none;html=1;entryX=0;entryY=0.5;entryDx=0;entryDy=0;exitX=1;exitY=0.5;exitDx=0;exitDy=0;endFill=0;" parent="1" target="07VAeV7Kq3pEdNZy9phS-10" edge="1">
          <mxGeometry width="50" height="50" relative="1" as="geometry">
            <mxPoint x="280" y="210" as="sourcePoint" />
            <mxPoint x="404" y="250" as="targetPoint" />
          </mxGeometry>
        </mxCell>
        <mxCell id="07VAeV7Kq3pEdNZy9phS-48" value="" style="endArrow=none;html=1;entryX=0;entryY=0.5;entryDx=0;entryDy=0;endFill=0;" parent="1" target="07VAeV7Kq3pEdNZy9phS-9" edge="1">
          <mxGeometry width="50" height="50" relative="1" as="geometry">
            <mxPoint x="280" y="250" as="sourcePoint" />
            <mxPoint x="407" y="250" as="targetPoint" />
          </mxGeometry>
        </mxCell>
        <mxCell id="07VAeV7Kq3pEdNZy9phS-49" value="" style="endArrow=none;html=1;entryX=0;entryY=0.5;entryDx=0;entryDy=0;endFill=0;" parent="1" target="07VAeV7Kq3pEdNZy9phS-10" edge="1">
          <mxGeometry width="50" height="50" relative="1" as="geometry">
            <mxPoint x="280" y="289.5" as="sourcePoint" />
            <mxPoint x="407" y="290" as="targetPoint" />
          </mxGeometry>
        </mxCell>
        <mxCell id="07VAeV7Kq3pEdNZy9phS-50" value="" style="endArrow=none;html=1;entryX=0;entryY=1;entryDx=0;entryDy=0;endFill=0;" parent="1" target="07VAeV7Kq3pEdNZy9phS-7" edge="1">
          <mxGeometry width="50" height="50" relative="1" as="geometry">
            <mxPoint x="280" y="250" as="sourcePoint" />
            <mxPoint x="404" y="250" as="targetPoint" />
          </mxGeometry>
        </mxCell>
        <mxCell id="07VAeV7Kq3pEdNZy9phS-51" value="" style="endArrow=none;html=1;entryX=0;entryY=1;entryDx=0;entryDy=0;endFill=0;" parent="1" target="07VAeV7Kq3pEdNZy9phS-8" edge="1">
          <mxGeometry width="50" height="50" relative="1" as="geometry">
            <mxPoint x="280" y="250" as="sourcePoint" />
            <mxPoint x="406.92893218813447" y="177.07106781186553" as="targetPoint" />
          </mxGeometry>
        </mxCell>
        <mxCell id="07VAeV7Kq3pEdNZy9phS-52" value="" style="endArrow=none;html=1;entryX=0;entryY=0.5;entryDx=0;entryDy=0;endFill=0;" parent="1" target="07VAeV7Kq3pEdNZy9phS-10" edge="1">
          <mxGeometry width="50" height="50" relative="1" as="geometry">
            <mxPoint x="280" y="250" as="sourcePoint" />
            <mxPoint x="406.92893218813447" y="217.07106781186553" as="targetPoint" />
          </mxGeometry>
        </mxCell>
        <mxCell id="07VAeV7Kq3pEdNZy9phS-53" value="" style="endArrow=none;html=1;entryX=0;entryY=1;entryDx=0;entryDy=0;endFill=0;" parent="1" target="07VAeV7Kq3pEdNZy9phS-7" edge="1">
          <mxGeometry width="50" height="50" relative="1" as="geometry">
            <mxPoint x="280" y="289.5" as="sourcePoint" />
            <mxPoint x="404" y="290" as="targetPoint" />
          </mxGeometry>
        </mxCell>
        <mxCell id="07VAeV7Kq3pEdNZy9phS-54" value="" style="endArrow=none;html=1;entryX=0;entryY=1;entryDx=0;entryDy=0;exitX=1;exitY=0.5;exitDx=0;exitDy=0;endFill=0;" parent="1" source="07VAeV7Kq3pEdNZy9phS-6" target="07VAeV7Kq3pEdNZy9phS-8" edge="1">
          <mxGeometry width="50" height="50" relative="1" as="geometry">
            <mxPoint x="287" y="282.43" as="sourcePoint" />
            <mxPoint x="413.92893218813447" y="170.00106781186554" as="targetPoint" />
          </mxGeometry>
        </mxCell>
        <mxCell id="07VAeV7Kq3pEdNZy9phS-55" value="" style="endArrow=none;html=1;entryX=0;entryY=1;entryDx=0;entryDy=0;exitX=1;exitY=0.5;exitDx=0;exitDy=0;endFill=0;" parent="1" source="07VAeV7Kq3pEdNZy9phS-6" target="07VAeV7Kq3pEdNZy9phS-9" edge="1">
          <mxGeometry width="50" height="50" relative="1" as="geometry">
            <mxPoint x="287" y="286.46" as="sourcePoint" />
            <mxPoint x="413.92893218813447" y="213.53106781186554" as="targetPoint" />
          </mxGeometry>
        </mxCell>
        <mxCell id="07VAeV7Kq3pEdNZy9phS-56" value="" style="rounded=0;whiteSpace=wrap;html=1;fillColor=#ffffff;strokeColor=none;" parent="1" vertex="1">
          <mxGeometry x="316" y="140" width="48" height="170" as="geometry" />
        </mxCell>
        <mxCell id="07VAeV7Kq3pEdNZy9phS-17" value="......." style="text;html=1;strokeColor=none;fillColor=none;align=center;verticalAlign=middle;whiteSpace=wrap;rounded=0;" parent="1" vertex="1">
          <mxGeometry x="320" y="180" width="40" height="20" as="geometry" />
        </mxCell>
        <mxCell id="07VAeV7Kq3pEdNZy9phS-16" value="......." style="text;html=1;strokeColor=none;fillColor=none;align=center;verticalAlign=middle;whiteSpace=wrap;rounded=0;" parent="1" vertex="1">
          <mxGeometry x="320" y="210" width="40" height="20" as="geometry" />
        </mxCell>
        <mxCell id="07VAeV7Kq3pEdNZy9phS-15" value="......." style="text;html=1;strokeColor=none;fillColor=none;align=center;verticalAlign=middle;whiteSpace=wrap;rounded=0;" parent="1" vertex="1">
          <mxGeometry x="320" y="240" width="40" height="20" as="geometry" />
        </mxCell>
        <mxCell id="07VAeV7Kq3pEdNZy9phS-58" value="Input layer" style="text;html=1;strokeColor=none;fillColor=none;align=center;verticalAlign=middle;whiteSpace=wrap;rounded=0;" parent="1" vertex="1">
          <mxGeometry x="135" y="300" width="70" height="20" as="geometry" />
        </mxCell>
        <mxCell id="07VAeV7Kq3pEdNZy9phS-59" value="Hidden layers" style="text;html=1;strokeColor=none;fillColor=none;align=center;verticalAlign=middle;whiteSpace=wrap;rounded=0;" parent="1" vertex="1">
          <mxGeometry x="293" y="300" width="94" height="20" as="geometry" />
        </mxCell>
        <mxCell id="07VAeV7Kq3pEdNZy9phS-60" value="Output layer" style="text;html=1;strokeColor=none;fillColor=none;align=center;verticalAlign=middle;whiteSpace=wrap;rounded=0;" parent="1" vertex="1">
          <mxGeometry x="475" y="300" width="70" height="20" as="geometry" />
        </mxCell>
        <mxCell id="uwSRes9Aw_1jAktl2Aag-2" value="&lt;font style=&quot;font-size: 10px&quot;&gt;X&lt;sub&gt;1&lt;/sub&gt;&lt;/font&gt;" style="text;html=1;strokeColor=none;fillColor=none;align=center;verticalAlign=middle;whiteSpace=wrap;rounded=0;" vertex="1" parent="1">
          <mxGeometry x="80" y="200" width="40" height="20" as="geometry" />
        </mxCell>
        <mxCell id="uwSRes9Aw_1jAktl2Aag-3" value="&lt;font style=&quot;font-size: 10px&quot;&gt;Xn&lt;/font&gt;" style="text;html=1;strokeColor=none;fillColor=none;align=center;verticalAlign=middle;whiteSpace=wrap;rounded=0;" vertex="1" parent="1">
          <mxGeometry x="80" y="250" width="40" height="20" as="geometry" />
        </mxCell>
        <mxCell id="uwSRes9Aw_1jAktl2Aag-5" value="&lt;font style=&quot;font-size: 10px&quot;&gt;w&lt;sub&gt;i&lt;/sub&gt;&lt;/font&gt;" style="text;html=1;strokeColor=none;fillColor=none;align=center;verticalAlign=middle;whiteSpace=wrap;rounded=0;" vertex="1" parent="1">
          <mxGeometry x="200" y="100" width="40" height="20" as="geometry" />
        </mxCell>
        <mxCell id="uwSRes9Aw_1jAktl2Aag-8" value="&lt;font style=&quot;font-size: 10px&quot;&gt;w&lt;sub&gt;k&lt;/sub&gt;&lt;/font&gt;" style="text;html=1;strokeColor=none;fillColor=none;align=center;verticalAlign=middle;whiteSpace=wrap;rounded=0;" vertex="1" parent="1">
          <mxGeometry x="450" y="100" width="40" height="20" as="geometry" />
        </mxCell>
        <mxCell id="uwSRes9Aw_1jAktl2Aag-10" value="&lt;font style=&quot;font-size: 10px&quot;&gt;w&lt;sub&gt;j&lt;/sub&gt;&lt;/font&gt;" style="text;html=1;strokeColor=none;fillColor=none;align=center;verticalAlign=middle;whiteSpace=wrap;rounded=0;" vertex="1" parent="1">
          <mxGeometry x="320" y="100" width="40" height="20" as="geometry" />
        </mxCell>
        <mxCell id="uwSRes9Aw_1jAktl2Aag-12" value="y&lt;sub&gt;1&lt;/sub&gt;" style="text;html=1;strokeColor=none;fillColor=none;align=center;verticalAlign=middle;whiteSpace=wrap;rounded=0;" vertex="1" parent="1">
          <mxGeometry x="570" y="200" width="40" height="20" as="geometry" />
        </mxCell>
        <mxCell id="uwSRes9Aw_1jAktl2Aag-13" value="y&lt;font size=&quot;1&quot;&gt;n&lt;/font&gt;" style="text;html=1;strokeColor=none;fillColor=none;align=center;verticalAlign=middle;whiteSpace=wrap;rounded=0;" vertex="1" parent="1">
          <mxGeometry x="570" y="250" width="40" height="20" as="geometry" />
        </mxCell>
      </root>
    </mxGraphModel>
  </diagram>
</mxfile>
